<svg width="70" height="70" viewBox="0 0 70 70" fill="none" xmlns="http://www.w3.org/2000/svg">
<path d="M35 70C54.33 70 70 54.33 70 35C70 15.67 54.33 0 35 0C15.67 0 0 15.67 0 35C0 54.33 15.67 70 35 70Z" fill="#FDDA24"/>
<path d="M13.4615 18.8462V20.1923V51.1539H56.5384V18.8462H13.4615ZM16.1538 21.5385H53.8461V48.4616H16.1538V21.5385ZM24.2781 24.2308V26.9231H21.5858V29.6154H24.2781V32.3077H26.9704V29.6154H29.6627V26.9231H26.9704V24.2308H24.2781ZM40.3635 26.9231V29.6154H48.4405V26.9231H40.3635ZM46.0584 37.8133L40.7211 43.8762L42.7456 45.6536L48.0776 39.5906L46.0584 37.8133ZM23.7207 37.9237L21.8171 39.8273L23.7207 41.7308L21.8171 43.6396L23.7207 45.5432L25.6242 43.6396L27.5278 45.5432L29.4313 43.6396L27.5278 41.7308L29.4313 39.8273L27.5278 37.9237L25.6242 39.8273L23.7207 37.9237Z" fill="white"/>
</svg>
