<svg width="60" height="60" viewBox="0 0 60 60" fill="none" xmlns="http://www.w3.org/2000/svg">
<path d="M48.5467 47.6259C47.9824 47.6259 47.4413 47.4596 47.0424 47.1636C46.6434 46.8676 46.4193 46.4662 46.4193 46.0476V43.3644C35.825 35.2834 33.655 29.0648 33.9954 25.2452C33.9954 24.8266 34.2196 24.4251 34.6185 24.1292C35.0175 23.8332 35.5586 23.6669 36.1228 23.6669C36.687 23.6669 37.2281 23.8332 37.6271 24.1292C38.026 24.4251 38.2502 24.8266 38.2502 25.2452C38.2502 27.9284 39.4841 33.6103 50.0358 41.502C50.2402 41.6429 50.4026 41.814 50.5125 42.0043C50.6224 42.1946 50.6774 42.3998 50.674 42.6068V45.9529C50.674 46.3715 50.4499 46.7729 50.0509 47.0689C49.652 47.3649 49.1109 47.5312 48.5467 47.5312V47.6259Z" fill="#FDDA24"/>
<path d="M5.99919 53.6865C5.43839 53.6784 4.90359 53.5095 4.50697 53.2153C4.11034 52.921 3.88271 52.5242 3.87182 52.1082C3.9538 42.3644 5.20682 32.6455 7.616 23.0669C9.52822 16.3475 14.5848 10.3473 21.8898 6.12941C29.1948 1.91155 38.2764 -0.251583 47.5255 0.0233163C47.8994 0.0147243 48.2691 0.084123 48.5925 0.223626C48.9159 0.363129 49.1801 0.567142 49.3551 0.812481C49.5423 1.04653 49.6411 1.31368 49.6411 1.58586C49.6411 1.85804 49.5423 2.12519 49.3551 2.35924L45.1003 8.00966L58.5028 20.0997C59.0714 20.6279 59.4922 21.2351 59.7406 21.8855C59.989 22.5359 60.06 23.2166 59.9494 23.8876C59.6809 25.2368 58.7015 26.4516 57.2263 27.2653L53.6949 29.1593C53.4564 29.2834 53.186 29.3699 52.9006 29.4133C52.6151 29.4568 52.3207 29.4563 52.0355 29.4118L36.8036 27.1074C34.2418 26.7485 31.9281 25.7396 30.2592 24.2537C28.5902 22.7678 27.6698 20.8974 27.6559 18.9633V14.2914C27.6667 13.8753 27.8944 13.4786 28.291 13.1843C28.6876 12.89 29.2224 12.7212 29.7832 12.7131C30.3474 12.7131 30.8885 12.8794 31.2875 13.1754C31.6865 13.4714 31.9106 13.8728 31.9106 14.2914V18.9633C31.9248 20.1503 32.4851 21.2982 33.4987 22.2167C34.5124 23.1353 35.9186 23.7693 37.4843 24.0139L51.8228 26.192L54.6309 24.6768C54.9 24.5343 55.1261 24.3518 55.295 24.141C55.4638 23.9301 55.5717 23.6955 55.6117 23.4521C55.6517 23.2086 55.623 22.9617 55.5274 22.7269C55.4318 22.4921 55.2714 22.2746 55.0564 22.0884L40.8456 9.11449C40.6094 8.84715 40.4837 8.53447 40.4837 8.21484C40.4837 7.89522 40.6094 7.58254 40.8456 7.3152L43.7813 3.17997C36.1341 3.44609 28.8274 5.60536 23.0279 9.31305C17.2284 13.0207 13.2703 18.0631 11.7856 23.6351C9.45267 33.0079 8.22832 42.5141 8.12656 52.045C8.12656 52.4636 7.90243 52.8651 7.50347 53.1611C7.10451 53.4571 6.56341 53.6234 5.99919 53.6234V53.6865Z" fill="#FDDA24"/>
<path d="M53.1843 60H2.12737C1.56316 60 1.02205 59.8337 0.623094 59.5377C0.224134 59.2417 0 58.8403 0 58.4217V55.265C0 54.0092 0.672399 52.8049 1.86928 51.9169C3.06616 51.0289 4.68948 50.53 6.38212 50.53C6.94633 50.53 7.48744 50.6963 7.8864 50.9923C8.28536 51.2883 8.50949 51.6898 8.50949 52.1084C8.50949 52.527 8.28536 52.9284 7.8864 53.2244C7.48744 53.5204 6.94633 53.6867 6.38212 53.6867C5.8179 53.6867 5.2768 53.853 4.87784 54.149C4.47888 54.445 4.25475 54.8464 4.25475 55.265V56.8433H51.057V55.265C51.057 54.8464 50.8328 54.445 50.4339 54.149C50.0349 53.853 49.4938 53.6867 48.9296 53.6867H14.8916C14.3274 53.6867 13.7863 53.5204 13.3873 53.2244C12.9884 52.9284 12.7642 52.527 12.7642 52.1084C12.7642 51.6898 12.9884 51.2883 13.3873 50.9923C13.7863 50.6963 14.3274 50.53 14.8916 50.53H48.9296C50.6222 50.53 52.2455 51.0289 53.4424 51.9169C54.6393 52.8049 55.3117 54.0092 55.3117 55.265V58.4217C55.3117 58.8403 55.0876 59.2417 54.6886 59.5377C54.2897 59.8337 53.7485 60 53.1843 60Z" fill="#FDDA24"/>
</svg>
